<?xml version="1.0" encoding="UTF-8" standalone="no"?>
<!-- Created with Inkscape (http://www.inkscape.org/) -->

<svg
   width="392.63824"
   height="1099.7343"
   viewBox="0 0 103.88554 290.97136"
   version="1.1"
   id="svg29867"
   inkscape:version="1.1 (c4e8f9e, 2021-05-24)"
   sodipodi:docname="kid.svg"
   xmlns:inkscape="http://www.inkscape.org/namespaces/inkscape"
   xmlns:sodipodi="http://sodipodi.sourceforge.net/DTD/sodipodi-0.dtd"
   xmlns="http://www.w3.org/2000/svg"
   xmlns:svg="http://www.w3.org/2000/svg">
  <sodipodi:namedview
     id="namedview29869"
     pagecolor="#ffffff"
     bordercolor="#666666"
     borderopacity="1.0"
     inkscape:pageshadow="2"
     inkscape:pageopacity="0.0"
     inkscape:pagecheckerboard="0"
     inkscape:document-units="px"
     showgrid="false"
     inkscape:zoom="0.43465044"
     inkscape:cx="-33.360141"
     inkscape:cy="671.80421"
     inkscape:window-width="1312"
     inkscape:window-height="912"
     inkscape:window-x="0"
     inkscape:window-y="25"
     inkscape:window-maximized="0"
     inkscape:current-layer="layer1"
     fit-margin-top="0"
     fit-margin-left="0"
     fit-margin-right="0"
     fit-margin-bottom="0"
     units="px"
     inkscape:snap-others="false"
     inkscape:object-nodes="false"
     inkscape:snap-nodes="false" />
  <defs
     id="defs29864" />
  <g
     inkscape:label="Layer 1"
     inkscape:groupmode="layer"
     id="layer1"
     transform="translate(-40.170271,-65.825477)">
    <g
       id="g31696">
      <g
         id="g29752"
         transform="translate(-15.803494,-21.327222)">
        <path
           style="fill:#69a6ff;fill-opacity:1;stroke:none;stroke-width:0.264583px;stroke-linecap:butt;stroke-linejoin:miter;stroke-opacity:1"
           d="m 88.236282,293.51106 -3.043634,73.65593 h 9.739627 l 10.957085,-72.43848 13.39198,73.65593 h 10.95708 l -5.47853,-77.91702 -4.86982,-9.1309 z"
           id="path31012" />
        <path
           style="fill:#ff7269;fill-opacity:1;stroke:none;stroke-width:0.264583px;stroke-linecap:butt;stroke-linejoin:miter;stroke-opacity:1"
           d="m 89.841646,203.79834 -13.397431,92.59995 61.076555,-1.18212 -12.21531,-94.17613 z"
           id="path22487"
           sodipodi:nodetypes="ccccc" />
        <path
           style="fill:#ff7269;fill-opacity:1;stroke:none;stroke-width:0.264583px;stroke-linecap:butt;stroke-linejoin:miter;stroke-opacity:1"
           d="m 89.948726,203.49504 c 0,0 -10.506354,12.45771 -25.085915,40.82875 -2.364257,17.33787 35.232089,26.59934 35.232089,26.59934 l 5.70545,-60.06822 z"
           id="path23248"
           inkscape:transform-center-x="17.119587"
           inkscape:transform-center-y="34.79008"
           sodipodi:nodetypes="ccccc" />
        <path
           style="fill:#ff7269;fill-opacity:1;stroke:none;stroke-width:0.264583px;stroke-linecap:butt;stroke-linejoin:miter;stroke-opacity:1"
           d="m 125.30546,201.04004 c 0,0 21.42651,15.2273 21.82055,43.59835 2.36425,10.2451 -26.06322,20.19829 -26.06322,20.19829 l -15.11864,-50.92305 5.12221,-12.57885 z"
           id="path23248-15"
           inkscape:transform-center-x="-11.36272"
           inkscape:transform-center-y="37.115325"
           sodipodi:nodetypes="cccccc" />
        <path
           style="fill:#d85b53;fill-opacity:1;stroke:none;stroke-width:0.264583px;stroke-linecap:butt;stroke-linejoin:miter;stroke-opacity:1"
           d="m 90.235696,213.25536 -9.851064,50.43742 -3.546377,-3.54639 z"
           id="path26619"
           sodipodi:nodetypes="cccc" />
        <path
           style="fill:#d85b53;fill-opacity:1;stroke:none;stroke-width:0.264583px;stroke-linecap:butt;stroke-linejoin:miter;stroke-opacity:1"
           d="m 123.71172,214.65976 8.91616,44.30216 3.90082,-1.95039 z"
           id="path27871" />
        <path
           id="path2803"
           style="fill:#f2dfc6;fill-opacity:1;stroke:none;stroke-width:0.29522;stroke-opacity:1"
           d="m 105.47938,107.71986 c -23.058988,1.3e-4 -40.963849,8.00758 -40.963889,35.38399 0.01,3.07964 0.26138,6.15148 0.75137,9.1757 8.861764,20.54409 9.122824,25.45973 27.519255,37.70389 4.338777,1.7699 8.893604,2.67872 13.481344,2.68992 5.06024,-0.006 10.07742,-1.10408 14.80685,-3.24064 16.52602,-11.53683 19.90109,-24.87569 26.03769,-36.17074 0.59632,-3.33991 0.90041,-6.74402 0.90743,-10.15813 -5e-5,-27.37641 -19.48107,-35.38386 -42.54005,-35.38399 z"
           sodipodi:nodetypes="ccccccccc" />
        <path
           style="fill:#f2c7a9;fill-opacity:1;stroke:none;stroke-width:0.264583px;stroke-linecap:butt;stroke-linejoin:miter;stroke-opacity:1"
           d="m 102.94066,151.94392 -0.39404,26.79488 h 8.66893 l -2.36426,-26.0068 z"
           id="path11946" />
        <g
           id="g18301"
           transform="translate(1.6717796,-17.054921)">
          <path
             style="fill:#782121;fill-opacity:1;stroke:none;stroke-width:0.264583px;stroke-linecap:butt;stroke-linejoin:miter;stroke-opacity:1"
             d="m 104.59568,116.93926 c 0,0 16.60837,2.59301 19.11604,-0.75055 2.50767,-3.34356 6.96575,-7.52301 5.29397,-9.75205 -1.67178,-2.22904 -1.67178,-2.22904 -1.67178,-2.22904 0,0 10.30931,3.62219 10.03068,8.91616 -0.27863,5.29397 -4.73671,15.04602 -4.73671,15.04602 0,0 -27.36551,-2.67836 -28.0322,-11.23054 -0.66669,-8.55219 0,0 0,0 z"
             id="path5228" />
          <path
             style="fill:#782121;fill-opacity:1;stroke:none;stroke-width:0.264583px;stroke-linecap:butt;stroke-linejoin:miter;stroke-opacity:1"
             d="m 146.00212,150.4602 c 0,0 3.34356,16.16054 10.58794,16.7178 7.24438,0.55726 -12.25972,5.29397 -16.43917,-0.27863 -4.17945,-5.5726 5.85123,-16.43917 5.85123,-16.43917 z"
             id="path8207" />
          <path
             style="fill:#782121;fill-opacity:1;stroke:none;stroke-width:0.264583px;stroke-linecap:butt;stroke-linejoin:miter;stroke-opacity:1"
             d="m 77.626339,125.30546 c 0,0 -19.702116,6.30468 -22.460413,18.51999 -2.758295,12.21531 1.970212,26.0068 1.970212,26.0068 l -2.364253,5.12255 c 0,0 9.457015,-7.09277 9.457015,-8.66894 0,-1.57616 13.397439,-40.9804 13.397439,-40.9804 z"
             id="path10622" />
          <path
             style="fill:#782121;fill-opacity:1;stroke:none;stroke-width:0.264583px;stroke-linecap:butt;stroke-linejoin:miter;stroke-opacity:1"
             d="m 63.595085,175.68447 v 0 0 c 3.843423,3.7405 8.612653,5.44422 14.313609,5.09814 l -6.026086,-8.6087 c 5.165218,5.57227 10.330435,7.39926 15.495653,8.17826 l -5.620634,-10.96456 c 4.288768,6.70972 10.238737,8.71712 15.951068,10.10369 l -4.241899,-8.57123 c 1.729997,4.90522 12.555624,7.7874 19.978714,8.05144 l -6.69769,-6.36716 c 5.02969,3.55349 7.98578,8.35114 16.35653,9.89999 l -3.44348,-6.45652 c 5.07924,3.62031 9.08981,6.01536 17.66225,4.19001 -5.44489,-1.26656 -9.50878,-3.91413 -12.72763,-7.40674 13.57799,10.95965 15.26111,-1.51876 26.69596,7.458 l -4.45153,-11.352 0.39375,-10.53902 c -1.9475,-34.90082 -24.9214,-40.9443 -42.63799,-41.45881 -11.691029,-0.81235 -25.902698,3.39615 -35.778002,12.89831 -8.082626,9.20593 -9.730691,24.47032 -8.912305,34.86715 z"
             id="path4032"
             sodipodi:nodetypes="cccccccccccccccccccccc" />
        </g>
        <path
           style="fill:#f2c7a9;fill-opacity:1;stroke:#f2a7a9;stroke-width:2.165;stroke-linecap:round;stroke-linejoin:miter;stroke-miterlimit:4;stroke-dasharray:none;stroke-opacity:1"
           d="m 95.847903,186.2256 c 0,0 13.003387,-2.7583 20.884237,0"
           id="path14107" />
        <g
           id="g30560"
           transform="matrix(0.78314089,0,0,0.76880615,23.536486,43.579617)">
          <path
             style="fill:#ff9955;stroke:#e3c965;stroke-width:3.96875;stroke-linecap:butt;stroke-linejoin:miter;stroke-miterlimit:4;stroke-dasharray:none;stroke-opacity:1"
             d="m 88.902939,194.08558 35.445301,-0.8503"
             id="path19097" />
          <path
             style="fill:#ff9955;stroke:#e3c965;stroke-width:3.96875;stroke-linecap:butt;stroke-linejoin:miter;stroke-miterlimit:4;stroke-dasharray:none;stroke-opacity:1"
             d="m 89.364159,206.67622 35.445291,-0.8503"
             id="path19097-3" />
          <path
             style="fill:#ff9955;stroke:#e3c965;stroke-width:3.96875;stroke-linecap:butt;stroke-linejoin:miter;stroke-miterlimit:4;stroke-dasharray:none;stroke-opacity:1"
             d="m 89.695342,196.20882 34.497878,1.79207"
             id="path19097-6" />
          <path
             style="fill:#ff9955;stroke:#e3c965;stroke-width:3.96875;stroke-linecap:butt;stroke-linejoin:miter;stroke-miterlimit:4;stroke-dasharray:none;stroke-opacity:1"
             d="m 89.867763,201.95486 34.497887,1.79207"
             id="path19097-6-5" />
          <path
             style="fill:#ff9955;stroke:#e3c965;stroke-width:3.96875;stroke-linecap:butt;stroke-linejoin:miter;stroke-miterlimit:4;stroke-dasharray:none;stroke-opacity:1"
             d="m 89.482636,201.58111 34.911614,-2.40342"
             id="path19097-6-8" />
        </g>
      </g>
      <path
         style="fill:#2c2c2c;fill-opacity:1;stroke:none;stroke-width:0.264583px;stroke-linecap:butt;stroke-linejoin:miter;stroke-opacity:1"
         d="m 69.389154,345.23104 -12.783261,6.696 v 4.86981 l 21.305435,-2.43491 1.82618,-8.52217 z"
         id="path31391" />
      <path
         style="fill:#2c2c2c;fill-opacity:1;stroke:none;stroke-width:0.264583px;stroke-linecap:butt;stroke-linejoin:miter;stroke-opacity:1"
         d="m 103.55741,347.21633 0.60872,9.13091 h 22.52289 v -6.696 l -13.39199,-4.26109 z"
         id="path31393" />
    </g>
  </g>
</svg>
